<svg width="64" height="40" viewBox="0 0 64 40" fill="none" xmlns="http://www.w3.org/2000/svg">
<circle opacity="0.201403" cx="20" cy="20" r="20" fill="black"/>
<path fill-rule="evenodd" clip-rule="evenodd" d="M45.4751 13.6937C48.7742 13.6928 48.9455 13.6927 49.116 13.7043L49.1445 13.7063C49.1721 13.7082 49.2038 13.7105 49.2508 13.7131L48.6199 12.1343C47.6354 9.67065 45.2864 8.07874 42.6356 8.07874H38.5276L40.2107 13.6945C42.5243 13.6945 44.221 13.694 45.4701 13.6937H45.472L45.4751 13.6937ZM27.8822 13.6945L29.0043 8.07882H23.439C22.8752 8.07882 22.3768 8.44562 22.2087 8.98428C21.6241 10.8566 21.1971 12.2239 20.8848 13.2234L20.8848 13.2236L20.7377 13.6946H27.8822V13.6945ZM35.836 8.07882L37.519 13.6945H30.5115L31.6334 8.07882H35.836ZM27.65 20.5828V16.275H20.004C19.9993 16.5962 19.9997 17.3776 20.0005 19.3813L20.0007 19.7777H21.4626C22.1745 19.7777 22.7516 20.3554 22.7516 21.068C22.7516 21.7806 22.1745 22.3583 21.4626 22.3583H20.0014L20.0016 23.9927C20.0016 26.0515 21.6156 27.7394 23.6436 27.8566C23.3611 24.7743 25.0052 21.9355 27.65 20.5828ZM61.253 21.0056C61.2181 21.7466 61.808 22.3583 62.5406 22.3583H63.986C63.8224 24.5831 62.4162 26.551 60.3863 27.4081C60.5163 23.1965 57.1307 19.7777 53.0015 19.7777C48.6854 19.7777 45.2398 23.4959 45.644 27.8637H38.359C38.7897 23.2086 34.8561 19.3328 30.228 19.8181V16.275H37.9624V17.7374C37.9624 18.4707 38.5735 19.0612 39.3137 19.0263C40.0071 18.9936 40.5405 18.3957 40.5405 17.7009V16.275H48.8412L61.8974 16.9912C62.4393 17.0209 62.9046 17.3876 63.0613 17.9076L63.2567 18.556L63.2579 18.5598C63.4208 19.1 63.5381 19.4894 63.6241 19.7777H62.577C61.8829 19.7777 61.2856 20.3116 61.253 21.0056ZM52.2995 31.9409C54.4623 32.2587 56.545 31.0809 57.4115 29.1015C58.8004 25.9247 56.4592 22.3583 53.0016 22.3583C50.0864 22.3583 47.8207 24.9486 48.239 27.8637C48.5391 29.9534 50.1922 31.6316 52.2995 31.9409ZM26.239 27.8637C25.8195 24.9402 28.0958 22.3583 31.0015 22.3583C33.9189 22.3583 36.1821 24.9509 35.7642 27.8636C35.5231 29.5414 34.4019 30.9926 32.8018 31.6417C30.9654 32.3866 28.8648 31.9242 27.5018 30.4769C26.4851 29.3973 26.304 28.2505 26.2555 27.9432C26.2474 27.8916 26.243 27.8637 26.239 27.8637Z" fill="#26B5C0"/>
</svg>
